<?xml version="1.0" encoding="UTF-8" standalone="no"?>
<!-- Created with Inkscape (http://www.inkscape.org/) -->

<svg
   xmlns:dc="http://purl.org/dc/elements/1.1/"
   xmlns:cc="http://creativecommons.org/ns#"
   xmlns:rdf="http://www.w3.org/1999/02/22-rdf-syntax-ns#"
   xmlns:svg="http://www.w3.org/2000/svg"
   xmlns="http://www.w3.org/2000/svg"
   xmlns:sodipodi="http://sodipodi.sourceforge.net/DTD/sodipodi-0.dtd"
   xmlns:inkscape="http://www.inkscape.org/namespaces/inkscape"
   width="262.39676mm"
   height="98.050941mm"
   viewBox="0 0 262.39676 98.050941"
   version="1.1"
   id="svg1993"
   inkscape:version="0.92.4 (unknown)"
   sodipodi:docname="logo-ub.svg">
  <defs
     id="defs1987" />
  <sodipodi:namedview
     id="base"
     pagecolor="#ffffff"
     bordercolor="#666666"
     borderopacity="1.0"
     inkscape:pageopacity="0.0"
     inkscape:pageshadow="2"
     inkscape:zoom="0.35"
     inkscape:cx="291.08913"
     inkscape:cy="-228.99258"
     inkscape:document-units="mm"
     inkscape:current-layer="g1985"
     showgrid="false"
     inkscape:window-width="1920"
     inkscape:window-height="1050"
     inkscape:window-x="1366"
     inkscape:window-y="0"
     inkscape:window-maximized="1" />
  <metadata
     id="metadata1990">
    <rdf:RDF>
      <cc:Work
         rdf:about="">
        <dc:format>image/svg+xml</dc:format>
        <dc:type
           rdf:resource="http://purl.org/dc/dcmitype/StillImage" />
        <dc:title></dc:title>
      </cc:Work>
    </rdf:RDF>
  </metadata>
  <g
     inkscape:label="Layer 1"
     inkscape:groupmode="layer"
     id="layer1"
     transform="translate(-156.06352,-74.105486)">
    <g
       id="g1985"
       transform="translate(610.18331,205.29585)"
       inkscape:export-filename="/srv/koolamusic/docs.ultimatebackend.com/src/assets/logo-ub.png"
       inkscape:export-xdpi="100"
       inkscape:export-ydpi="100">
      <g
         style="fill:#ffffff"
         id="g1975"
         transform="matrix(0.06296695,0,0,-0.06296695,-1351.3256,23.167447)">
        <path
           d="m 16267.1,1058.11 -34.1,-163.88 -799,166.51 c -116.9,24.37 -197.7,125.55 -200.8,239.73 62.5,-12.72 125.5,-25.15 188.1,-37.26 l 252.2,-48.01 c 84.1,-14.9 168.4,-30.87 252.7,-44.87 -82.9,20.84 -166.5,39.89 -249.6,60.11 l -250.3,56.75 c -96.1,21.29 -192.6,42.08 -288.9,62.75 -88.3,38.89 -146.7,125.67 -150,222.03 88.7,-17.81 177.5,-35.68 266,-52.83 l 252.4,-48.07 c 84.2,-14.96 168.4,-30.87 252.8,-44.87 -82.8,21.12 -166.5,39.89 -249.6,60.11 l -250.6,56.76 c -121.2,27.22 -242.7,52.83 -364.4,78.88 0,0 0,0 -0.3,0.06 -89.3,38.37 -148.4,125.33 -152.2,222.14 114.4,-23.53 229.3,-46.84 344.3,-69.19 l 252.5,-48.02 c 84.1,-14.96 168,-30.87 252.7,-44.93 -83.2,21.23 -166.5,40.23 -249.6,60.11 l -250.6,56.82 c -147.2,32.94 -294.6,63.64 -441.8,95.29 -89.7,37.82 -149.4,124.89 -153.3,221.42 140.7,-28.35 281.5,-57.71 422.5,-84.82 l 252.1,-48.02 c 84.5,-15.01 168.5,-30.87 253.2,-44.65 -83.3,20.95 -166.5,39.94 -250,59.89 l -250.3,56.7 c -167.1,37.42 -334.6,72.33 -501.9,108.52 l -17.4,3.64 c -109.6,45.83 -174.8,163.88 -149.7,284.5 l 1352.4,-281.81 c 91.2,-21.62 279.8,-80.4 440.5,-247.86 137.3,-143.09 200,-308.98 227.1,-451.51 25.8,-136.09 21.3,-276.26 -7.1,-412.12"
           style="fill:#ffffff;fill-opacity:1;fill-rule:nonzero;stroke:none"
           id="path1973"
           inkscape:connector-curvature="0" />
      </g>
      <g
         style="fill:#ffffff"
         id="g1979"
         transform="matrix(0.07186683,0,0,-0.07186683,-1361.9089,23.167447)">
        <path
           d="m 14514.3,927.07 30,-143.581 700,145.888 c 102.5,21.353 173.2,110.003 176,210.043 -54.8,-11.14 -110,-22.04 -164.9,-32.64 l -220.9,-42.07 c -73.7,-13.05 -147.6,-27.04 -221.5,-39.32 72.7,18.26 146,34.95 218.7,52.67 l 219.3,49.73 c 84.2,18.65 168.9,36.86 253.2,54.98 77.3,34.07 128.5,110.1 131.4,194.53 -77.8,-15.61 -155.5,-31.27 -233.1,-46.29 l -221.2,-42.12 c -73.7,-13.1 -147.5,-27.04 -221.4,-39.31 72.6,18.5 145.9,34.95 218.6,52.67 l 219.6,49.72 c 106.2,23.86 212.7,46.29 319.3,69.12 0,0 0,0 0.3,0.05 78.3,33.62 130,109.81 133.4,194.63 -100.3,-20.62 -200.9,-41.04 -301.7,-60.62 l -221.2,-42.07 c -73.7,-13.11 -147.3,-27.05 -221.5,-39.37 72.9,18.6 145.9,35.24 218.7,52.67 l 219.6,49.78 c 129,28.86 258.1,55.76 387,83.49 78.7,33.14 131,109.42 134.4,194 -123.3,-24.84 -246.7,-50.56 -370.2,-74.32 l -220.9,-42.07 c -74,-13.15 -147.5,-27.05 -221.8,-39.12 72.9,18.36 145.9,35 219,52.47 l 219.4,49.68 c 146.3,32.79 293.1,63.37 439.7,95.08 l 15.2,3.19 c 96,40.16 153.2,143.58 131.2,249.27 l -1185,-246.91 c -79.9,-18.95 -245.1,-70.44 -385.9,-217.16 -120.3,-125.37 -175.2,-270.72 -198.9,-395.6 -22.6,-119.24 -18.7,-242.05 6.1,-361.09"
           style="fill:#ffffff;fill-opacity:1;fill-rule:nonzero;stroke:none"
           id="path1977"
           inkscape:connector-curvature="0" />
      </g>
      <g
         aria-label="B"
         transform="rotate(90)"
         style="font-style:normal;font-variant:normal;font-weight:normal;font-stretch:normal;font-size:2.31685686px;line-height:1.25;font-family:'Copyright Sharp Type Co.';-inkscape-font-specification:'Copyright Sharp Type Co.';letter-spacing:0.21720535px;word-spacing:0px;fill:#1d3557;fill-opacity:1;stroke:#1d3557;stroke-width:5.8670001;stroke-miterlimit:4;stroke-dasharray:none;stroke-opacity:1"
         id="text1983">
        <path
           d="m -79.49392,350.30444 q 9.763897,0 16.383488,-1.4894 6.702336,-1.57216 10.094876,-5.21293 1.737643,-1.82039 2.565092,-4.21999 0.910194,-2.48235 0.910194,-5.62665 v -0.24824 q 0,-6.37136 -3.55803,-9.35017 -3.475286,-2.97882 -10.839581,-3.97176 6.454101,-1.15842 9.598407,-4.13724 3.227051,-3.06156 3.227051,-8.93645 v -0.33098 q 0,-8.60547 -6.950571,-11.91526 -6.95057,-3.39254 -21.348181,-3.39254 H -110.606 v 58.83161 z m 0.661959,-50.63987 q 9.267428,0 13.487417,1.57215 4.219989,1.48941 4.219989,6.53685 v 0.24824 q 0,3.55803 -2.234112,5.37841 -2.151367,1.73765 -6.040376,2.31686 -1.985878,0.24823 -4.302735,0.41372 -2.234112,0.16549 -4.881948,0.16549 h -22.092884 v -16.63172 z m -0.744704,24.65798 q 6.867826,0 11.17056,0.57921 4.385479,0.57922 6.454101,2.3996 0.992939,0.9102 1.489408,2.31686 0.579215,1.40666 0.579215,3.3098 v 0.24823 q 0,3.39254 -1.985878,5.21293 -1.985877,1.82039 -6.536846,2.56509 -2.234112,0.33098 -5.295673,0.49647 -3.061561,0.16549 -6.95057,0.16549 h -20.024262 v -17.29368 z"
           style="font-size:82.74488831px;fill:#1d3557;fill-opacity:1;stroke:#1d3557;stroke-width:5.8670001;stroke-miterlimit:4;stroke-dasharray:none;stroke-opacity:1"
           id="path2093" />
      </g>
    </g>
  </g>
</svg>
